<svg viewBox="0 0 48 48" xmlns="http://www.w3.org/2000/svg"><g id="Doctor_Chat" data-name="Doctor Chat"><path d="m47 4v8a3 3 0 0 1 -3 3h-9l-7 3v-3a3 3 0 0 1 -3-3v-8a3 3 0 0 1 3-3h16a3 3 0 0 1 3 3z" fill="#7c6f66"/><path d="m42 8a1 1 0 0 0 -2 0 1 1 0 0 0 2 0z" fill="#fff"/><path d="m37 8a1 1 0 0 0 -2 0 1 1 0 0 0 2 0z" fill="#fff"/><path d="m32 8a1 1 0 0 0 -2 0 1 1 0 0 0 2 0z" fill="#fff"/><path d="m35 48v-6.39a6 6 0 0 0 -3.19-5.3c-14.62-7.74-13.81-7.2-13.81-7.31 0 .1-13.91 7.36-13.81 7.31a6 6 0 0 0 -3.19 5.3v6.39" fill="#fff"/><g fill="#ffbe1d"><path d="m14 31 4 16-8-9z"/><path d="m22 31-4 16 8-9z"/><path d="m26 17h-16v6a8 8 0 0 0 16 0z"/><path d="m9 23h1v-6h-1a3 3 0 0 0 0 6z"/><path d="m27 23h-1v-6h1a3 3 0 0 1 0 6z"/></g><path d="m27 17h-18v-9l9-3 9 3z" fill="#fff"/><path d="m44 0h-16a4 4 0 0 0 -4 4v2l-6-2-10 3.28v8.85a4 4 0 0 0 1.06 7.87 9 9 0 0 0 4 6.53l-9.34 4.9a7 7 0 0 0 -3.72 6.18v6.39h2v-6.39a5 5 0 0 1 2.66-4.43c.48-.23 1.9-1 6.63-3.45l-2.16 3.77a1 1 0 0 0 .12 1.16c5 5.62 8 9.07 8.08 9.07a1 1 0 0 0 1.42-.07l8-9a1 1 0 0 0 .12-1.16l-2.18-3.81c1.75.91 3.93 2.06 6.65 3.5a5 5 0 0 1 2.66 4.42v6.39h2v-6.39a7 7 0 0 0 -3.73-6.18l-9.27-4.92a9 9 0 0 0 4-6.51 4 4 0 0 0 3.54-6l4.73-2h8.73a4 4 0 0 0 4-4v-8a4 4 0 0 0 -4-4zm-34 8.72 8-2.67 8 2.67v7.28h-16zm-3 11.28a2 2 0 0 1 2-2v4a2 2 0 0 1 -2-2zm4.22 17.87 2.41-4.21 2.37 9.63zm4.11-6.28a8.84 8.84 0 0 0 5.36 0c.17.09.31-.7-2.69 11.3-3.13-12.55-2.85-11.17-2.67-11.3zm9.45 6.28-4.78 5.42 2.41-9.63zm-4-8.47a7 7 0 0 1 -9.78-6.4v-5h14v5a7 7 0 0 1 -4.17 6.4zm8.22-9.4a2 2 0 0 1 -2 2v-4a2 2 0 0 1 2 2zm17-8a2 2 0 0 1 -2 2h-9.21l-5.79 2.48v-2.48h-1v-6.72l-2-.67v-2.61a2 2 0 0 1 2-2h16a2 2 0 0 1 2 2z"/><path d="m21 10h-2v-2h-2v2h-2v2h2v2h2v-2h2z" fill="#7c6f66"/></g></svg>