<?xml version="1.0" encoding="UTF-8"?>
<svg id="_Слой_1" data-name="Слой 1" xmlns="http://www.w3.org/2000/svg" viewBox="0 0 2000 2000">
  <defs>
    <style>
      .cls-1 {
        fill: #fff;
      }
    </style>
  </defs>
  <polygon class="cls-1" points="639.39 1268.14 575.54 1385.8 510.49 1268.14 485.49 1268.14 485.49 1445.62 514.53 1445.62 514.53 1329.48 568.34 1425.32 581.87 1425.32 635.68 1327.96 635.9 1445.62 635.79 1445.62 664.61 1445.62 664.39 1268.14 639.39 1268.14"/>
  <polygon class="cls-1" points="706.96 1445.62 803.88 1445.62 803.88 1418 803.88 1418 731.63 1418 731.63 1369.1 803.88 1369.1 803.88 1341.93 731.63 1341.93 731.63 1295.76 803.88 1295.76 803.88 1268.14 706.96 1268.14 706.96 1445.62"/>
  <path class="cls-1" d="M942.83,1279.17c-12.66-7.31-27.29-11.02-43.66-11.02h-67.24v177.04h67.24c16.37,0,30.89-3.71,43.66-11.02,12.77-7.31,22.59-17.68,29.69-31.11,7.09-13.43,10.59-28.82,10.59-46.39s-3.6-32.96-10.59-46.39c-7.09-13.43-16.92-23.79-29.69-31.11ZM947.31,1388.53c-4.58,9.17-11.24,16.26-19.76,21.18-8.62,4.91-18.56,7.42-29.8,7.42v.11h-37.33v-121.27h37.33c11.24,0,21.17,2.51,29.8,7.42,8.51,4.91,15.17,12.01,19.76,21.18s6.88,19.87,6.88,31.98-2.29,22.81-6.88,31.98Z"/>
  <polygon class="cls-1" points="1014.76 1268.14 1014.76 1445.62 1048.05 1445.62 1048.05 1268.14 1014.76 1268.14 1014.76 1268.14"/>
  <path class="cls-1" d="M1144.54,1301.76c9.71-5.24,13.97-7.86,32.74-7.86s34.6,6.77,47.48,20.41l21.28-19.65c-8.3-9.39-18.45-16.59-30.45-21.61-12.01-4.91-21.94-7.42-39.84-7.42s-34.16,3.82-48.57,11.57c-14.41,7.75-25.76,18.34-34.05,31.98-8.3,13.64-12.44,28.92-12.44,46.06s4.15,32.42,12.33,46.06c8.19,13.64,19.54,24.23,33.95,31.98h0c14.52,7.75,34.05,11.57,48.57,11.57s27.83-2.4,39.95-7.42c12.12-4.91,22.27-12.12,30.56-21.61l-21.28-19.87c-12.88,13.75-28.71,20.63-47.48,20.63-12.22,0-23.14-2.62-32.74-7.86-9.61-5.24-17.14-12.55-22.59-21.83-5.35-9.39-8.08-19.87-8.08-31.65s2.62-22.38,8.08-31.65c5.46-9.39,12.99-16.59,22.59-21.83Z"/>
  <path class="cls-1" d="M1329.66,1268.14l-70.07,176.82h29.8l15.28-40.93h77.93l15.61,40.93h30.23l-70.29-176.82h-28.49ZM1314.38,1378.27l29.14-77.28,29.36,77.28h-58.5Z"/>
  <path class="cls-1" d="M1555.38,1365.28c5.35-9.61,8.08-21.39,8.08-34.38s-2.51-24.23-7.53-33.62c-5.13-9.39-12.33-16.7-21.83-21.72-9.5-5.02-20.63-7.53-33.4-7.53h-60.69v176.82h27.4v-51.52h33.29c2.51,0,4.37,0,5.68-.22l30.13,51.74h.11s29.47,0,29.47,0l-33.95-58.07c10.04-4.69,17.9-11.9,23.25-21.5ZM1499.39,1366.49h-31.98v-70.51h31.98c11.9,0,20.96,2.95,27.18,9.06v.11c6.22,6,9.28,14.74,9.28,25.98s-3.06,19.97-9.28,26.09c-6.22,6.22-15.28,9.28-27.18,9.28Z"/>
  <path class="cls-1" d="M1720.41,1310.27c-6.33-13.43-15.39-23.79-27.07-31.11-11.68-7.31-25-11.02-39.95-11.02h-61.45v177.04h61.45c14.95,0,28.27-3.71,39.95-11.02,11.57-7.31,20.63-17.68,27.07-31.11,6.44-13.43,9.61-28.82,9.61-46.39s-3.27-32.96-9.61-46.39ZM1697.49,1388.53c-4.26,9.17-10.26,16.26-18.12,21.18-7.86,4.91-16.92,7.42-27.18,7.42v.11h-34.16v-121.27h34.16c10.26,0,19.32,2.51,27.18,7.42,7.86,4.91,13.86,12.01,18.12,21.18s6.33,19.87,6.33,31.98-2.07,22.81-6.33,31.98Z"/>
  <path class="cls-1" d="M464.97,1323.59h.11s-.09-.02-.13-.04c0,.01.02.03.02.04Z"/>
  <path class="cls-1" d="M947.2,1058.57c-31.73-.37-66.75-.59-108.77-.61-44.72-.03-97.38.16-162.46.61-35.26.22-70.84,2.84-102.71,8.08-31.33,5.13-59.16,12.66-79.68,22.59-45.3,22.05-105.55,73.13-105.55,122.79.11,86.42,71.44,109.98,76.93,111.51,0,0,0-.01-.01-.02.05.02.1.04.14.06-.11-.22-.33-.55-.76-.76-5.13-6.22-33.62-41.8-16.92-75.64,25.43-51.85,73.35-89.39,184.46-89.94h14.3c100.2-.11,200.4,0,298.63,0,16.26,0,58.29-4.91,58.29-48.14v-.76l.11-.11c0-.22-.02-.41-.03-.63l.03-.03c0-39.84-36.67-48.9-55.99-49.01Z"/>
  <path class="cls-1" d="M1081.23,888.52v-.11h0c0-.85,0-1.78-.11-2.62-.57-18.22-7.23-31.17-16.58-40.25-15.6-15.22-38.78-19.65-53.82-19.78-82.41-.87-182.61-1.2-341.53,0-69.09.55-139.06,8.62-191.12,24.56.01.04.03.09.04.13-14.38,4.25-27.34,9.27-38.57,14.71-40.93,20.08-91.36,59.05-116.68,102.93-.08,0-.1.07-.1.15-.04-.05-.08-.09-.12-.15-9.71-11.79-53.16-69.31-26.96-123.99,27.83-58.18,71.93-105.33,153.46-129.78,38.09-11.46,84.26-17.79,140.8-18.23,167.65-.22,335.31,0,499.47,0,25.87,0,92.89-8.3,92.89-79.35v-2.51h-.22c0-1.06,0-2.22-.11-3.38-1.11-35.32-19.6-55.24-40.98-65.97-16.6-8.39-34.97-11.22-48.31-11.41-104.35-1.2-231.29-1.42-432.34,0-79.46.55-159.8,9.17-223.21,26.09-25.65,6.77-48.57,15.06-67.67,24.56-72.37,36.35-168.42,120.39-168.31,202.15.22,135.45,102.93,177.04,120.5,183.15.11.04.21.08.31.12-9.53,16.96-15.38,34.78-15.38,52.28.11,105.95,82.77,137.89,95.68,142.14.18.07.34.13.48.19.22.11.55.22.65.22,0,0,0-.01,0-.02.05.01.09.02.11.02h.11c-.11-.11-.11-.22-.22-.22-.11-.22-.44-.44-.87-.87-.17-.17-.36-.36-.56-.56-7.65-9.5-41.36-53.71-20.94-96.04,23.69-48.57,62.43-87.43,136.76-104.67,26.85-6.33,58.4-9.93,95.72-10.15,41.34-.07,82.68-.09,123.95-.1,90.77,0,181.18.1,270.3.1h.11c20.41,0,73.35-6.22,73.35-61.56v-1.75Z"/>
</svg>