<svg viewBox="0 0 512 512" xmlns="http://www.w3.org/2000/svg"><g id="_7._Exam" data-name="7. Exam"><path d="m376 72v416a16 16 0 0 1 -16 16h-320a16 16 0 0 1 -16-16v-464a16 16 0 0 1 16-16h272z" fill="#f6edc8"/><path d="m360 480h-320a16 16 0 0 1 -16-16v24a16 16 0 0 0 16 16h320a16 16 0 0 0 16-16v-24a16 16 0 0 1 -16 16z" fill="#f4dcb5"/><path d="m360 512h-320a24 24 0 0 1 -24-24v-464a24 24 0 0 1 24-24h240a8 8 0 0 1 0 16h-240a8 8 0 0 0 -8 8v464a8 8 0 0 0 8 8h320a8 8 0 0 0 8-8v-412.69l-61.66-61.65a8 8 0 0 1 11.32-11.32l64 64a8 8 0 0 1 2.34 5.66v416a24 24 0 0 1 -24 24z"/><path d="m376 72h-64v-64z" fill="#f4dcb5"/><path d="m376 80h-64a8 8 0 0 1 -8-8v-64a8 8 0 0 1 13.66-5.66l64 64a8 8 0 0 1 -5.66 13.66zm-56-16h36.69l-36.69-36.69z"/><circle cx="136" cy="120" fill="#b1da7a" r="72"/><path d="m136 200a80 80 0 1 1 80-80 80.09 80.09 0 0 1 -80 80zm0-144a64 64 0 1 0 64 64 64.07 64.07 0 0 0 -64-64z"/><path d="m160 160a8 8 0 0 1 -7.49-5.19l-16.51-44-16.51 44a8 8 0 0 1 -15-5.62l24-64a8 8 0 0 1 15 0l24 64a8 8 0 0 1 -7.49 10.81z"/><path d="m152 144h-32a8 8 0 0 1 0-16h32a8 8 0 0 1 0 16z"/><path d="m320 264h-240a8 8 0 0 1 0-16h240a8 8 0 0 1 0 16z"/><path d="m112 296h-32a8 8 0 0 1 0-16h32a8 8 0 0 1 0 16z"/><path d="m216 296h-32a8 8 0 0 1 0-16h32a8 8 0 0 1 0 16z"/><path d="m320 296h-32a8 8 0 0 1 0-16h32a8 8 0 0 1 0 16z"/><path d="m282.34 221.66-16-16a8 8 0 0 1 11.32-11.32l10.34 10.35 26.34-26.35a8 8 0 1 1 11.32 11.32l-32 32a8 8 0 0 1 -11.32 0z"/><path d="m320 416h-240a8 8 0 0 1 0-16h240a8 8 0 0 1 0 16z"/><path d="m112 448h-32a8 8 0 0 1 0-16h32a8 8 0 0 1 0 16z"/><path d="m216 448h-32a8 8 0 0 1 0-16h32a8 8 0 0 1 0 16z"/><path d="m320 448h-32a8 8 0 0 1 0-16h32a8 8 0 0 1 0 16z"/><path d="m282.34 373.66-16-16a8 8 0 0 1 11.32-11.32l10.34 10.35 26.34-26.35a8 8 0 0 1 11.32 11.32l-32 32a8 8 0 0 1 -11.32 0z"/><path d="m488 72v384l-32 48-32-48v-384a32 32 0 0 1 64 0z" fill="#e9a648"/><path d="m488 426v30l-32 48-32-48v-30l32-24z" fill="#d08840"/><path d="m488 456-32 48-32-48 32-24z" fill="#a6806f"/><path d="m488 72v32h-64v-32a32 32 0 0 1 64 0z" fill="#cd4f5f"/><path d="m449.34 508.44-32-48a8.07 8.07 0 0 1 -1.34-4.44v-384a40 40 0 0 1 80 0v72a8 8 0 0 1 -16 0v-72a24 24 0 0 0 -48 0v381.58l24 36 24-36v-277.58a8 8 0 0 1 16 0v280a8.07 8.07 0 0 1 -1.34 4.44l-32 48a8 8 0 0 1 -13.32 0z"/><path d="m424 104h64v40h-64z" fill="#f6f6f6"/><path d="m488 152h-64a8 8 0 0 1 -8-8v-40a8 8 0 0 1 8-8h64a8 8 0 0 1 8 8v40a8 8 0 0 1 -8 8zm-56-16h48v-24h-48z"/><path d="m483.2 462.4-27.2-20.4-27.2 20.4a8 8 0 1 1 -9.6-12.8l32-24a8 8 0 0 1 9.6 0l32 24a8 8 0 1 1 -9.6 12.8z"/><path d="m456 440a8 8 0 0 1 -8-8v-288a8 8 0 0 1 16 0v288a8 8 0 0 1 -8 8z"/></g></svg>