<svg viewBox="0 0 512 512" xmlns="http://www.w3.org/2000/svg"><g id="_10._Clinic" data-name="10. Clinic"><path d="m8 472h496v32h-496z" fill="#4c5657"/><path d="m504 512h-496a8 8 0 0 1 -8-8v-32a8 8 0 0 1 8-8h496a8 8 0 0 1 8 8v32a8 8 0 0 1 -8 8zm-488-16h480v-16h-480z"/><path d="m24 216h464v48h-464z" fill="#e38499"/><path d="m24 240h464v24h-464z" fill="#db4e6c"/><path d="m488 272h-464a8 8 0 0 1 -8-8v-48a8 8 0 0 1 8-8h464a8 8 0 0 1 8 8v48a8 8 0 0 1 -8 8zm-456-16h448v-32h-448z"/><path d="m488 216h-464l72-128h320z" fill="#cd4f5f"/><path d="m488 224h-464a8 8 0 0 1 -7-11.92l72-128a8 8 0 0 1 7-4.08h320a8 8 0 0 1 7 4.08l72 128a8 8 0 0 1 -7 11.92zm-450.32-16h436.64l-63-112h-310.64z"/><path d="m120 56h272v32h-272z" fill="#596060"/><path d="m392 96h-272a8 8 0 0 1 -8-8v-32a8 8 0 0 1 8-8h32a8 8 0 0 1 0 16h-24v16h256v-16h-200a8 8 0 0 1 0-16h208a8 8 0 0 1 8 8v32a8 8 0 0 1 -8 8z"/><path d="m64 264h384v208h-384z" fill="#eaf2ff"/><path d="m64 448h384v24h-384z" fill="#c1d1f7"/><path d="m448 480h-384a8 8 0 0 1 -8-8v-208a8 8 0 0 1 8-8h384a8 8 0 0 1 0 16h-376v192h368v-168a8 8 0 0 1 16 0v176a8 8 0 0 1 -8 8z"/><path d="m208 328h96a16 16 0 0 1 16 16v128a0 0 0 0 1 0 0h-128a0 0 0 0 1 0 0v-128a16 16 0 0 1 16-16z" fill="#a8edfd"/><path d="m192 448h128v24h-128z" fill="#8bd4de"/><path d="m320 480h-128a8 8 0 0 1 -8-8v-128a24 24 0 0 1 24-24h96a24 24 0 0 1 24 24v128a8 8 0 0 1 -8 8zm-120-16h112v-120a8 8 0 0 0 -8-8h-96a8 8 0 0 0 -8 8z"/><path d="m184 8h144v144h-144z" fill="#eaf2ff"/><path d="m184 128h144v24h-144z" fill="#c1d1f7"/><path d="m328 160h-144a8 8 0 0 1 -8-8v-144a8 8 0 0 1 8-8h144a8 8 0 0 1 8 8v144a8 8 0 0 1 -8 8zm-136-16h128v-128h-128z"/><path d="m64 328h96v80h-96z" fill="#a8edfd"/><path d="m160 416h-96a8 8 0 0 1 -8-8v-80a8 8 0 0 1 8-8h96a8 8 0 0 1 8 8v80a8 8 0 0 1 -8 8zm-88-16h80v-64h-80z"/><path d="m352 328h96v80h-96z" fill="#a8edfd"/><path d="m448 416h-96a8 8 0 0 1 -8-8v-80a8 8 0 0 1 8-8h96a8 8 0 0 1 8 8v80a8 8 0 0 1 -8 8zm-88-16h80v-64h-80z"/><path d="m64 408a56 56 0 0 0 -56 56v8h56z" fill="#b1da7a"/><path d="m8 472h56v-24h-53.67c-2.69 9-2.33 15.07-2.33 24z" fill="#96bf5b"/><path d="m64 480h-56a8 8 0 0 1 -8-8v-8a64.07 64.07 0 0 1 64-64 8 8 0 0 1 8 8v64a8 8 0 0 1 -8 8zm-48-16h40v-47.33a48.08 48.08 0 0 0 -40 47.33z"/><path d="m448 408a56 56 0 0 1 56 56v8h-56z" fill="#b1da7a"/><path d="m448 448v24h56c0-8.92.37-14.91-2.33-24z" fill="#96bf5b"/><path d="m504 480h-56a8 8 0 0 1 -8-8v-64a8 8 0 0 1 8-8 64.07 64.07 0 0 1 64 64v8a8 8 0 0 1 -8 8zm-48-16h40a48.08 48.08 0 0 0 -40-47.33z"/><path d="m296 64h-24v-24h-32v24h-24v32h24v24h32v-24h24z" fill="#e38499"/><path d="m272 128h-32a8 8 0 0 1 -8-8v-16h-16a8 8 0 0 1 -8-8v-32a8 8 0 0 1 8-8h16v-16a8 8 0 0 1 8-8h32a8 8 0 0 1 8 8v16h16a8 8 0 0 1 8 8v32a8 8 0 0 1 -8 8h-16v16a8 8 0 0 1 -8 8zm-24-16h16v-16a8 8 0 0 1 8-8h16v-16h-16a8 8 0 0 1 -8-8v-16h-16v16a8 8 0 0 1 -8 8h-16v16h16a8 8 0 0 1 8 8z"/><path d="m256 480a8 8 0 0 1 -8-8v-144a8 8 0 0 1 16 0v144a8 8 0 0 1 -8 8z"/></g></svg>