<svg viewBox="0 0 48 48" xmlns="http://www.w3.org/2000/svg"><g id="Message_in_smartphone" data-name="Message in smartphone"><path d="m5 7h28v34h-28z" fill="#9fdbf3"/><path d="m21 21c0 10.82 0 10.2.09 10.59a2 2 0 0 0 1.91 1.41h10v8h-25v-34h25v12h-10a2 2 0 0 0 -2 2z" fill="#b2e5fb"/><path d="m33 5v2h-28v-2a4 4 0 0 1 4-4h20a4 4 0 0 1 4 4z" fill="#374f68"/><path d="m33 5v2h-25v-2a4 4 0 0 1 4-4h17a4 4 0 0 1 4 4z" fill="#425b72"/><path d="m33 41c0 1.9.13 2.83-.52 4a4 4 0 0 1 -3.48 2h-20a4 4 0 0 1 -4-4v-2z" fill="#374f68"/><path d="m33 41c0 1.9.13 2.83-.52 4-.35 0 1.09 0-20.48 0a4 4 0 0 1 -4-4z" fill="#425b72"/><path d="m43 19c0 10.82 0 10.2-.09 10.59a2 2 0 0 1 -1.91 1.41c-17.38 0-16.08 0-16.43 0a2 2 0 0 1 -1.57-2c0-10.75-.09-10.31.22-10.91a2 2 0 0 1 1.78-1.09h16a2 2 0 0 1 2 2z" fill="#fc6"/><path d="m43 19v10h-13a5 5 0 0 1 -5-5v-7h16a2 2 0 0 1 2 2z" fill="#ffde76"/><path d="m20 43h-2a1 1 0 0 0 0 2h2a1 1 0 0 0 0-2z"/><path d="m41 16h-7v-11a5 5 0 0 0 -5-5h-20a5 5 0 0 0 -5 5v38a5 5 0 0 0 5 5h20a5 5 0 0 0 5-5v-11h7a3 3 0 0 0 3-3v-10a3 3 0 0 0 -3-3zm-15.46 14 5.85-5c1.62 1.32 1.43 1.46 3.22 0l5.85 5zm14.46-12-7 5.71-7-5.71zm2 1v9.68l-5.82-5c6.17-5.02 5.82-4.78 5.82-4.68zm-18 9.68c0-9 0-9.42 0-9.73l5.81 4.74zm-15-26.68h20a3 3 0 0 1 3 3v1h-26v-1a3 3 0 0 1 3-3zm20 44h-20a3 3 0 0 1 -3-3v-1h26v1a3 3 0 0 1 -3 3zm3-6h-26v-32h26v8h-7a3 3 0 0 0 -3 3v10a3 3 0 0 0 3 3h7z"/></g></svg>