<?xml version="1.0" encoding="UTF-8"?>
<svg id="_Слой_1" data-name="Слой 1" xmlns="http://www.w3.org/2000/svg" viewBox="0 0 744 404">
  <defs>
    <style>
      .cls-1 {
        fill: #fff;
      }
    </style>
  </defs>
  <path class="cls-1" d="M160.62,379.44L3.61,197.17,161.11,12.64l390.06.23,157.39,183.5c.61,2.4-7.35,10.9-9.37,13.31-48.22,57.45-99,113.1-148.02,169.78H160.62ZM170.1,30.86L26.66,198.02l144.44,165.43h371.09s143.38-165.48,143.38-165.48L543.21,30.84l-373.1.02Z"/>
  <g>
    <path class="cls-1" d="M180.34,120.34c7.03.68,17.55,4.35,22.95,9.02,15.4,13.34,16.61,51.3-2.47,62v1.96c10.65,4.75,12.47,18.12,13.96,28.53l3.01,48.49h-21.97c-1.19-11.4-1.03-23.1-2.01-34.49-.78-9.04-1.16-21.73-6.98-29.01-1.1-1.38-6.23-5.5-7.49-5.5h-16.48v69h-21.97V120.34c12.69.9,26.94-1.21,39.45,0ZM162.86,182.34h17.48c.33,0,5.35-2.74,5.85-3.14,8.57-6.82,9.56-29.43.58-36.3-.7-.54-6.07-3.56-6.44-3.56h-17.48v43Z"/>
    <path class="cls-1" d="M431.5,119.34v46c5.69-2.62,11.05-5.51,17.49-5.98,12.67-.92,25.64,5.42,30.33,17.6,1.26,3.27,3.11,12.64,3.11,15.88v77.5h-21.97v-76.5c0-1.23-2.12-7.62-2.99-9-4.5-7.13-16.88-7.52-22.53-1.55-.65.68-3.44,5.2-3.44,5.55v81.5h-21.97V119.34h21.97Z"/>
    <path class="cls-1" d="M571.31,221.34h-50.93v14.5c0,1.01,1.68,7.37,2.2,8.79,6.67,18.25,30.57,6.56,26.76-11.29h20.97c.32,49.26-64.86,54.05-70.89,3.48-3.46-29.01-2.91-80.25,38.42-77.46,18.32,1.23,33.47,20.59,33.47,38.48v23.5ZM520.38,203.34h28.46c2.21,0,.65-10.55.26-12.26-2.28-10.02-9.09-15.35-19.47-11.97-8.58,2.8-9.49,16.67-9.26,24.23Z"/>
    <path class="cls-1" d="M263.51,159.62c44.18-5.13,43.85,46.75,41.15,77.2-4.16,46.94-69.03,50.17-72.88-3.99-1.88-26.52-2.86-69.19,31.73-73.21ZM264.45,178.58c-5.11,1.05-8.17,5.81-9.44,10.54-2.41,8.92-2.29,45.28.41,54.05,3.43,11.14,17.05,14.86,23.53,4.92,6.29-9.65,4.94-42.1,3.74-54.23-1.03-10.47-7.05-17.58-18.24-15.28Z"/>
    <path class="cls-1" d="M394.55,201.34h-21.97c.36-7.93-1.41-20.85-10.71-22.77-11.66-2.41-16.84,4.73-18.14,15.38-1.38,11.31-1.73,34.66.13,45.65.92,5.44,5.22,12.94,11.2,13.78,14.45,2.02,16.58-9.34,17.52-21.04h21.97c-1.6,24.81-14.55,42.62-41.32,39.88-35.7-3.66-34.54-49.44-31.45-76.25,6.24-54.12,73.61-45.8,72.77,5.37Z"/>
  </g>
</svg>